<svg xmlns="http://www.w3.org/2000/svg" width="500" height="260" viewBox="0 0 500 260">
  <defs>
    <!-- Dégradés -->
    <linearGradient id="goldStroke" x1="0%" y1="0%" x2="100%" y2="100%">
      <stop offset="0%" stop-color="#FFD700"/>
      <stop offset="50%" stop-color="#E6C200"/>
      <stop offset="100%" stop-color="#B8860B"/>
    </linearGradient>

    <radialGradient id="irisPink" cx="50%" cy="45%" r="60%">
      <stop offset="0%" stop-color="#FF4FA3"/>
      <stop offset="100%" stop-color="#D4145A"/>
    </radialGradient>

    <radialGradient id="pupilLime" cx="50%" cy="40%" r="60%">
      <stop offset="0%" stop-color="#B9FF3B"/>
      <stop offset="100%" stop-color="#42B300"/>
    </radialGradient>

    <linearGradient id="barGold" x1="0%" y1="0%" x2="0%" y2="100%">
      <stop offset="0%" stop-color="#FFE066"/>
      <stop offset="100%" stop-color="#B8860B"/>
    </linearGradient>

    <linearGradient id="barLime" x1="0%" y1="0%" x2="0%" y2="100%">
      <stop offset="0%" stop-color="#C8FF4A"/>
      <stop offset="100%" stop-color="#3AA300"/>
    </linearGradient>

    <linearGradient id="barPink" x1="0%" y1="0%" x2="0%" y2="100%">
      <stop offset="0%" stop-color="#FF6FB8"/>
      <stop offset="100%" stop-color="#B3155A"/>
    </linearGradient>

    <!-- Halo lumineux -->
    <filter id="glow">
      <feGaussianBlur stdDeviation="3.5" result="blur"/>
      <feMerge>
        <feMergeNode in="blur"/>
        <feMergeNode in="SourceGraphic"/>
      </feMerge>
    </filter>
  </defs>

  <!-- Œil -->
  <g transform="translate(60,50)">
    <path d="M0,80 C40,0 160,0 200,80 C160,160 40,160 0,80 Z"
          fill="none" stroke="url(#goldStroke)" stroke-width="10"/>
    <circle cx="100" cy="80" r="32" fill="url(#irisPink)"/>
    <circle cx="100" cy="80" r="14" fill="url(#pupilLime)"/>
  </g>

  <!-- Barres verticales (interposées) -->
  <g transform="translate(300,40)">
    <rect x="0" y="120" width="40" height="60" rx="8" fill="url(#barGold)"/>
    <rect x="60" y="80" width="40" height="100" rx="8" fill="url(#barLime)"/>
    <rect x="120" y="30" width="40" height="150" rx="8" fill="url(#barPink)"/>
  </g>

  <!-- Courbe dorée fine au-dessus des barres -->
  <path d="M 300 120 C 340 70, 390 60, 440 40"
        fill="none"
        stroke="url(#goldStroke)"
        stroke-width="3"
        stroke-linecap="round"
        filter="url(#glow)"/>
</svg>
